STARTFONT 2.1
COMMENT Copyright (C) 1994-1995 Cronyx Ltd.
COMMENT Changes Copyright (C) 1996-1997 by Andrey A. Chernov, Moscow, Russia.
COMMENT Designed by Serge Vakulenko, <vak@cronyx.ru>
COMMENT Changes 1999 by Serge Winitzki.
COMMENT This software may be used, modified, copied, distributed, and sold,
COMMENT in both source and binary form provided that the copyright
COMMENT and these terms are retained. Under no circumstances is the author
COMMENT responsible for the proper functioning of this software, nor does
COMMENT the author assume any responsibility for damages incurred with its use.
COMMENT $XFree86$
FONT -Cronyx-Fixed-Medium-R-Normal--10-100-75-75-C-60-KOI8-R
SIZE 10 75 75
FONTBOUNDINGBOX 7 10 0 -2
STARTPROPERTIES 21
FONTNAME_REGISTRY ""
FOUNDRY "Misc"
FAMILY_NAME "Fixed"
WEIGHT_NAME "Medium"
SLANT "R"
SETWIDTH_NAME "Normal"
ADD_STYLE_NAME ""
PIXEL_SIZE 10
POINT_SIZE 100
RESOLUTION_X 75
RESOLUTION_Y 75
SPACING "C"
AVERAGE_WIDTH 60
CHARSET_REGISTRY "KOI8"
CHARSET_ENCODING "R"
FONT_ASCENT 8
FONT_DESCENT 2
DEFAULT_CHAR 0
COPYRIGHT "Copyright (C) 1994 Cronyx Ltd., Portions Copyright (C) 1996-1997 by Andrey A. Chernov, Moscow, Russia."
_XMBDFED_INFO "Edited with xmbdfed 4.3."
_XFREE86_GLYPH_RANGES "0_126 149 152_154 156_158 163 179 191_255"
ENDPROPERTIES
CHARS 201
STARTCHAR C000
ENCODING 0
SWIDTH 672 0
DWIDTH 7 0
BBX 0 0 0 0
BITMAP
ENDCHAR
STARTCHAR uni25C6
ENCODING 1
SWIDTH 672 0
DWIDTH 7 0
BBX 7 7 0 0
BITMAP
10
38
38
7C
38
38
10
ENDCHAR
STARTCHAR shade
ENCODING 2
SWIDTH 672 0
DWIDTH 7 0
BBX 7 7 0 0
BITMAP
54
28
54
28
14
28
54
ENDCHAR
STARTCHAR uni2409
ENCODING 3
SWIDTH 672 0
DWIDTH 7 0
BBX 7 9 0 -2
BITMAP
48
48
78
48
48
3C
08
08
08
ENDCHAR
STARTCHAR uni240C
ENCODING 4
SWIDTH 672 0
DWIDTH 7 0
BBX 7 9 0 -2
BITMAP
70
40
60
40
5C
10
18
10
10
ENDCHAR
STARTCHAR uni240D
ENCODING 5
SWIDTH 672 0
DWIDTH 7 0
BBX 7 9 0 -2
BITMAP
38
40
40
38
38
24
38
24
24
ENDCHAR
STARTCHAR uni240A
ENCODING 6
SWIDTH 672 0
DWIDTH 7 0
BBX 7 9 0 -2
BITMAP
40
40
40
78
3C
20
38
20
20
ENDCHAR
STARTCHAR degree
ENCODING 7
SWIDTH 672 0
DWIDTH 7 0
BBX 7 4 0 3
BITMAP
38
28
28
38
ENDCHAR
STARTCHAR plusminus
ENCODING 8
SWIDTH 672 0
DWIDTH 7 0
BBX 7 6 0 0
BITMAP
10
10
7C
10
10
7C
ENDCHAR
STARTCHAR uni2424
ENCODING 9
SWIDTH 672 0
DWIDTH 7 0
BBX 7 9 0 -2
BITMAP
48
68
68
58
48
20
20
20
3C
ENDCHAR
STARTCHAR uni240B
ENCODING 10
SWIDTH 672 0
DWIDTH 7 0
BBX 7 9 0 -2
BITMAP
48
48
30
20
3C
08
08
08
08
ENDCHAR
STARTCHAR SF040000
ENCODING 11
SWIDTH 672 0
DWIDTH 7 0
BBX 7 5 0 3
BITMAP
10
10
10
10
F0
ENDCHAR
STARTCHAR SF030000
ENCODING 12
SWIDTH 672 0
DWIDTH 7 0
BBX 7 6 0 -2
BITMAP
F0
10
10
10
10
10
ENDCHAR
STARTCHAR SF010000
ENCODING 13
SWIDTH 672 0
DWIDTH 7 0
BBX 7 6 0 -2
BITMAP
1C
10
10
10
10
10
ENDCHAR
STARTCHAR SF020000
ENCODING 14
SWIDTH 672 0
DWIDTH 7 0
BBX 7 5 0 3
BITMAP
10
10
10
10
1C
ENDCHAR
STARTCHAR SF050000
ENCODING 15
SWIDTH 672 0
DWIDTH 7 0
BBX 7 10 0 -2
BITMAP
10
10
10
10
FC
10
10
10
10
10
ENDCHAR
STARTCHAR char16
ENCODING 16
SWIDTH 672 0
DWIDTH 7 0
BBX 7 1 0 7
BITMAP
FC
ENDCHAR
STARTCHAR char17
ENCODING 17
SWIDTH 672 0
DWIDTH 7 0
BBX 7 1 0 5
BITMAP
FC
ENDCHAR
STARTCHAR char18
ENCODING 18
SWIDTH 672 0
DWIDTH 7 0
BBX 7 1 0 3
BITMAP
FC
ENDCHAR
STARTCHAR char19
ENCODING 19
SWIDTH 672 0
DWIDTH 7 0
BBX 7 1 0 1
BITMAP
FC
ENDCHAR
STARTCHAR char20
ENCODING 20
SWIDTH 672 0
DWIDTH 7 0
BBX 7 1 0 -1
BITMAP
FC
ENDCHAR
STARTCHAR SF080000
ENCODING 21
SWIDTH 672 0
DWIDTH 7 0
BBX 7 10 0 -2
BITMAP
10
10
10
10
1C
10
10
10
10
10
ENDCHAR
STARTCHAR SF090000
ENCODING 22
SWIDTH 672 0
DWIDTH 7 0
BBX 7 10 0 -2
BITMAP
10
10
10
10
F0
10
10
10
10
10
ENDCHAR
STARTCHAR SF070000
ENCODING 23
SWIDTH 672 0
DWIDTH 7 0
BBX 7 5 0 3
BITMAP
10
10
10
10
FC
ENDCHAR
STARTCHAR SF060000
ENCODING 24
SWIDTH 672 0
DWIDTH 7 0
BBX 7 6 0 -2
BITMAP
FC
10
10
10
10
10
ENDCHAR
STARTCHAR SF110000
ENCODING 25
SWIDTH 672 0
DWIDTH 7 0
BBX 7 10 0 -2
BITMAP
10
10
10
10
10
10
10
10
10
10
ENDCHAR
STARTCHAR lessequal
ENCODING 26
SWIDTH 672 0
DWIDTH 7 0
BBX 7 8 0 -1
BITMAP
04
08
20
40
20
08
04
7C
ENDCHAR
STARTCHAR greaterequal
ENCODING 27
SWIDTH 672 0
DWIDTH 7 0
BBX 7 8 0 -1
BITMAP
40
20
08
04
08
20
40
7C
ENDCHAR
STARTCHAR pi
ENCODING 28
SWIDTH 672 0
DWIDTH 7 0
BBX 7 5 0 0
BITMAP
7C
28
28
28
28
ENDCHAR
STARTCHAR notequal
ENCODING 29
SWIDTH 672 0
DWIDTH 7 0
BBX 7 7 0 0
BITMAP
04
08
7C
10
7C
20
40
ENDCHAR
STARTCHAR sterling
ENCODING 30
SWIDTH 672 0
DWIDTH 7 0
BBX 7 8 0 -1
BITMAP
18
24
20
78
20
38
6C
20
ENDCHAR
STARTCHAR periodcentered
ENCODING 31
SWIDTH 672 0
DWIDTH 7 0
BBX 7 1 0 3
BITMAP
10
ENDCHAR
STARTCHAR space
ENCODING 32
SWIDTH 672 0
DWIDTH 7 0
BBX 0 0 0 0
BITMAP
ENDCHAR
STARTCHAR exclam
ENCODING 33
SWIDTH 672 0
DWIDTH 7 0
BBX 7 7 0 0
BITMAP
10
10
10
10
10
00
10
ENDCHAR
STARTCHAR quotedbl
ENCODING 34
SWIDTH 672 0
DWIDTH 7 0
BBX 7 3 0 4
BITMAP
28
28
28
ENDCHAR
STARTCHAR numbersign
ENCODING 35
SWIDTH 672 0
DWIDTH 7 0
BBX 7 7 0 0
BITMAP
28
28
7C
28
7C
28
28
ENDCHAR
STARTCHAR dollar
ENCODING 36
SWIDTH 672 0
DWIDTH 7 0
BBX 7 7 0 0
BITMAP
10
38
50
38
14
38
10
ENDCHAR
STARTCHAR percent
ENCODING 37
SWIDTH 672 0
DWIDTH 7 0
BBX 7 7 0 0
BITMAP
24
54
28
10
28
54
48
ENDCHAR
STARTCHAR ampersand
ENCODING 38
SWIDTH 672 0
DWIDTH 7 0
BBX 7 7 0 0
BITMAP
20
50
50
20
54
48
34
ENDCHAR
STARTCHAR quotesingle
ENCODING 39
SWIDTH 672 0
DWIDTH 7 0
BBX 7 3 0 4
BITMAP
18
10
20
ENDCHAR
STARTCHAR parenleft
ENCODING 40
SWIDTH 672 0
DWIDTH 7 0
BBX 7 7 0 0
BITMAP
08
10
20
20
20
10
08
ENDCHAR
STARTCHAR parenright
ENCODING 41
SWIDTH 672 0
DWIDTH 7 0
BBX 7 7 0 0
BITMAP
20
10
08
08
08
10
20
ENDCHAR
STARTCHAR asterisk
ENCODING 42
SWIDTH 672 0
DWIDTH 7 0
BBX 7 5 0 1
BITMAP
44
28
7C
28
44
ENDCHAR
STARTCHAR plus
ENCODING 43
SWIDTH 672 0
DWIDTH 7 0
BBX 7 5 0 1
BITMAP
10
10
7C
10
10
ENDCHAR
STARTCHAR comma
ENCODING 44
SWIDTH 672 0
DWIDTH 7 0
BBX 7 3 0 -1
BITMAP
18
10
20
ENDCHAR
STARTCHAR hyphen
ENCODING 45
SWIDTH 672 0
DWIDTH 7 0
BBX 7 1 0 3
BITMAP
7C
ENDCHAR
STARTCHAR period
ENCODING 46
SWIDTH 672 0
DWIDTH 7 0
BBX 7 3 0 -1
BITMAP
10
38
10
ENDCHAR
STARTCHAR slash
ENCODING 47
SWIDTH 672 0
DWIDTH 7 0
BBX 7 7 0 0
BITMAP
04
04
08
10
20
40
40
ENDCHAR
STARTCHAR zero
ENCODING 48
SWIDTH 672 0
DWIDTH 7 0
BBX 7 7 0 0
BITMAP
10
28
44
44
44
28
10
ENDCHAR
STARTCHAR one
ENCODING 49
SWIDTH 672 0
DWIDTH 7 0
BBX 7 7 0 0
BITMAP
10
30
50
10
10
10
7C
ENDCHAR
STARTCHAR two
ENCODING 50
SWIDTH 672 0
DWIDTH 7 0
BBX 7 7 0 0
BITMAP
38
44
04
18
20
40
7C
ENDCHAR
STARTCHAR three
ENCODING 51
SWIDTH 672 0
DWIDTH 7 0
BBX 7 7 0 0
BITMAP
7C
04
08
18
04
44
38
ENDCHAR
STARTCHAR four
ENCODING 52
SWIDTH 672 0
DWIDTH 7 0
BBX 7 7 0 0
BITMAP
08
18
28
48
7C
08
08
ENDCHAR
STARTCHAR five
ENCODING 53
SWIDTH 672 0
DWIDTH 7 0
BBX 7 7 0 0
BITMAP
7C
40
58
64
04
44
38
ENDCHAR
STARTCHAR six
ENCODING 54
SWIDTH 672 0
DWIDTH 7 0
BBX 7 7 0 0
BITMAP
18
20
40
58
64
44
38
ENDCHAR
STARTCHAR seven
ENCODING 55
SWIDTH 672 0
DWIDTH 7 0
BBX 7 7 0 0
BITMAP
7C
04
08
08
10
20
20
ENDCHAR
STARTCHAR eight
ENCODING 56
SWIDTH 672 0
DWIDTH 7 0
BBX 7 7 0 0
BITMAP
38
44
44
38
44
44
38
ENDCHAR
STARTCHAR nine
ENCODING 57
SWIDTH 672 0
DWIDTH 7 0
BBX 7 7 0 0
BITMAP
38
44
4C
34
04
08
30
ENDCHAR
STARTCHAR colon
ENCODING 58
SWIDTH 672 0
DWIDTH 7 0
BBX 7 7 0 -1
BITMAP
10
38
10
00
10
38
10
ENDCHAR
STARTCHAR semicolon
ENCODING 59
SWIDTH 672 0
DWIDTH 7 0
BBX 7 7 0 -1
BITMAP
10
38
10
00
18
10
20
ENDCHAR
STARTCHAR less
ENCODING 60
SWIDTH 672 0
DWIDTH 7 0
BBX 7 7 0 0
BITMAP
04
08
10
20
10
08
04
ENDCHAR
STARTCHAR equal
ENCODING 61
SWIDTH 672 0
DWIDTH 7 0
BBX 7 3 0 2
BITMAP
7C
00
7C
ENDCHAR
STARTCHAR greater
ENCODING 62
SWIDTH 672 0
DWIDTH 7 0
BBX 7 7 0 0
BITMAP
40
20
10
08
10
20
40
ENDCHAR
STARTCHAR question
ENCODING 63
SWIDTH 672 0
DWIDTH 7 0
BBX 7 7 0 0
BITMAP
38
44
08
10
10
00
10
ENDCHAR
STARTCHAR at
ENCODING 64
SWIDTH 672 0
DWIDTH 7 0
BBX 7 7 0 0
BITMAP
38
44
4C
54
58
40
38
ENDCHAR
STARTCHAR A
ENCODING 65
SWIDTH 672 0
DWIDTH 7 0
BBX 7 7 0 0
BITMAP
10
28
44
44
7C
44
44
ENDCHAR
STARTCHAR B
ENCODING 66
SWIDTH 672 0
DWIDTH 7 0
BBX 7 7 0 0
BITMAP
78
24
24
38
24
24
78
ENDCHAR
STARTCHAR C
ENCODING 67
SWIDTH 672 0
DWIDTH 7 0
BBX 7 7 0 0
BITMAP
38
44
40
40
40
44
38
ENDCHAR
STARTCHAR D
ENCODING 68
SWIDTH 672 0
DWIDTH 7 0
BBX 7 7 0 0
BITMAP
78
24
24
24
24
24
78
ENDCHAR
STARTCHAR E
ENCODING 69
SWIDTH 672 0
DWIDTH 7 0
BBX 7 7 0 0
BITMAP
7C
40
40
78
40
40
7C
ENDCHAR
STARTCHAR F
ENCODING 70
SWIDTH 672 0
DWIDTH 7 0
BBX 7 7 0 0
BITMAP
7C
40
40
78
40
40
40
ENDCHAR
STARTCHAR G
ENCODING 71
SWIDTH 672 0
DWIDTH 7 0
BBX 7 7 0 0
BITMAP
38
44
40
40
4C
44
38
ENDCHAR
STARTCHAR H
ENCODING 72
SWIDTH 672 0
DWIDTH 7 0
BBX 7 7 0 0
BITMAP
44
44
44
7C
44
44
44
ENDCHAR
STARTCHAR I
ENCODING 73
SWIDTH 672 0
DWIDTH 7 0
BBX 7 7 0 0
BITMAP
38
10
10
10
10
10
38
ENDCHAR
STARTCHAR J
ENCODING 74
SWIDTH 672 0
DWIDTH 7 0
BBX 7 7 0 0
BITMAP
1C
04
04
04
04
44
38
ENDCHAR
STARTCHAR K
ENCODING 75
SWIDTH 672 0
DWIDTH 7 0
BBX 7 7 0 0
BITMAP
44
48
50
60
50
48
44
ENDCHAR
STARTCHAR L
ENCODING 76
SWIDTH 672 0
DWIDTH 7 0
BBX 7 7 0 0
BITMAP
40
40
40
40
40
40
7C
ENDCHAR
STARTCHAR M
ENCODING 77
SWIDTH 672 0
DWIDTH 7 0
BBX 7 7 0 0
BITMAP
44
44
6C
54
44
44
44
ENDCHAR
STARTCHAR N
ENCODING 78
SWIDTH 672 0
DWIDTH 7 0
BBX 7 7 0 0
BITMAP
44
44
64
54
4C
44
44
ENDCHAR
STARTCHAR O
ENCODING 79
SWIDTH 672 0
DWIDTH 7 0
BBX 7 7 0 0
BITMAP
38
44
44
44
44
44
38
ENDCHAR
STARTCHAR P
ENCODING 80
SWIDTH 672 0
DWIDTH 7 0
BBX 7 7 0 0
BITMAP
78
44
44
78
40
40
40
ENDCHAR
STARTCHAR Q
ENCODING 81
SWIDTH 672 0
DWIDTH 7 0
BBX 7 8 0 -1
BITMAP
38
44
44
44
44
54
38
04
ENDCHAR
STARTCHAR R
ENCODING 82
SWIDTH 672 0
DWIDTH 7 0
BBX 7 7 0 0
BITMAP
78
44
44
78
50
48
44
ENDCHAR
STARTCHAR S
ENCODING 83
SWIDTH 672 0
DWIDTH 7 0
BBX 7 7 0 0
BITMAP
38
44
40
38
04
44
38
ENDCHAR
STARTCHAR T
ENCODING 84
SWIDTH 672 0
DWIDTH 7 0
BBX 7 7 0 0
BITMAP
7C
10
10
10
10
10
10
ENDCHAR
STARTCHAR U
ENCODING 85
SWIDTH 672 0
DWIDTH 7 0
BBX 7 7 0 0
BITMAP
44
44
44
44
44
44
38
ENDCHAR
STARTCHAR V
ENCODING 86
SWIDTH 672 0
DWIDTH 7 0
BBX 7 7 0 0
BITMAP
44
44
44
28
28
28
10
ENDCHAR
STARTCHAR W
ENCODING 87
SWIDTH 672 0
DWIDTH 7 0
BBX 7 7 0 0
BITMAP
44
44
44
54
54
6C
44
ENDCHAR
STARTCHAR X
ENCODING 88
SWIDTH 672 0
DWIDTH 7 0
BBX 7 7 0 0
BITMAP
44
44
28
10
28
44
44
ENDCHAR
STARTCHAR Y
ENCODING 89
SWIDTH 672 0
DWIDTH 7 0
BBX 7 7 0 0
BITMAP
44
44
28
10
10
10
10
ENDCHAR
STARTCHAR Z
ENCODING 90
SWIDTH 672 0
DWIDTH 7 0
BBX 7 7 0 0
BITMAP
7C
04
08
10
20
40
7C
ENDCHAR
STARTCHAR bracketleft
ENCODING 91
SWIDTH 672 0
DWIDTH 7 0
BBX 7 7 0 0
BITMAP
38
20
20
20
20
20
38
ENDCHAR
STARTCHAR backslash
ENCODING 92
SWIDTH 672 0
DWIDTH 7 0
BBX 7 7 0 0
BITMAP
40
40
20
10
08
04
04
ENDCHAR
STARTCHAR bracketright
ENCODING 93
SWIDTH 672 0
DWIDTH 7 0
BBX 7 7 0 0
BITMAP
38
08
08
08
08
08
38
ENDCHAR
STARTCHAR asciicircum
ENCODING 94
SWIDTH 672 0
DWIDTH 7 0
BBX 7 3 0 4
BITMAP
10
28
44
ENDCHAR
STARTCHAR underscore
ENCODING 95
SWIDTH 672 0
DWIDTH 7 0
BBX 7 1 0 -1
BITMAP
7C
ENDCHAR
STARTCHAR grave
ENCODING 96
SWIDTH 672 0
DWIDTH 7 0
BBX 7 3 0 4
BITMAP
30
10
08
ENDCHAR
STARTCHAR a
ENCODING 97
SWIDTH 672 0
DWIDTH 7 0
BBX 7 5 0 0
BITMAP
38
04
3C
44
3C
ENDCHAR
STARTCHAR b
ENCODING 98
SWIDTH 672 0
DWIDTH 7 0
BBX 7 7 0 0
BITMAP
40
40
58
64
44
64
58
ENDCHAR
STARTCHAR c
ENCODING 99
SWIDTH 672 0
DWIDTH 7 0
BBX 7 5 0 0
BITMAP
38
44
40
44
38
ENDCHAR
STARTCHAR d
ENCODING 100
SWIDTH 672 0
DWIDTH 7 0
BBX 7 7 0 0
BITMAP
04
04
34
4C
44
4C
34
ENDCHAR
STARTCHAR e
ENCODING 101
SWIDTH 672 0
DWIDTH 7 0
BBX 7 5 0 0
BITMAP
38
44
7C
40
38
ENDCHAR
STARTCHAR f
ENCODING 102
SWIDTH 672 0
DWIDTH 7 0
BBX 7 7 0 0
BITMAP
18
24
20
78
20
20
20
ENDCHAR
STARTCHAR g
ENCODING 103
SWIDTH 672 0
DWIDTH 7 0
BBX 7 7 0 -2
BITMAP
34
48
30
40
38
44
38
ENDCHAR
STARTCHAR h
ENCODING 104
SWIDTH 672 0
DWIDTH 7 0
BBX 7 7 0 0
BITMAP
40
40
58
64
44
44
44
ENDCHAR
STARTCHAR i
ENCODING 105
SWIDTH 672 0
DWIDTH 7 0
BBX 7 7 0 0
BITMAP
10
00
30
10
10
10
38
ENDCHAR
STARTCHAR j
ENCODING 106
SWIDTH 672 0
DWIDTH 7 0
BBX 7 9 0 -2
BITMAP
08
00
18
08
08
08
48
48
30
ENDCHAR
STARTCHAR k
ENCODING 107
SWIDTH 672 0
DWIDTH 7 0
BBX 7 7 0 0
BITMAP
40
40
44
48
70
48
44
ENDCHAR
STARTCHAR l
ENCODING 108
SWIDTH 672 0
DWIDTH 7 0
BBX 7 7 0 0
BITMAP
30
10
10
10
10
10
38
ENDCHAR
STARTCHAR m
ENCODING 109
SWIDTH 672 0
DWIDTH 7 0
BBX 7 5 0 0
BITMAP
68
54
54
54
44
ENDCHAR
STARTCHAR n
ENCODING 110
SWIDTH 672 0
DWIDTH 7 0
BBX 7 5 0 0
BITMAP
58
64
44
44
44
ENDCHAR
STARTCHAR o
ENCODING 111
SWIDTH 672 0
DWIDTH 7 0
BBX 7 5 0 0
BITMAP
38
44
44
44
38
ENDCHAR
STARTCHAR p
ENCODING 112
SWIDTH 672 0
DWIDTH 7 0
BBX 7 7 0 -2
BITMAP
58
64
64
58
40
40
40
ENDCHAR
STARTCHAR q
ENCODING 113
SWIDTH 672 0
DWIDTH 7 0
BBX 7 7 0 -2
BITMAP
34
4C
4C
34
04
04
04
ENDCHAR
STARTCHAR r
ENCODING 114
SWIDTH 672 0
DWIDTH 7 0
BBX 7 5 0 0
BITMAP
58
64
40
40
40
ENDCHAR
STARTCHAR s
ENCODING 115
SWIDTH 672 0
DWIDTH 7 0
BBX 7 5 0 0
BITMAP
38
40
38
04
78
ENDCHAR
STARTCHAR t
ENCODING 116
SWIDTH 672 0
DWIDTH 7 0
BBX 7 7 0 0
BITMAP
20
20
78
20
20
24
18
ENDCHAR
STARTCHAR u
ENCODING 117
SWIDTH 672 0
DWIDTH 7 0
BBX 7 5 0 0
BITMAP
44
44
44
4C
34
ENDCHAR
STARTCHAR v
ENCODING 118
SWIDTH 672 0
DWIDTH 7 0
BBX 7 5 0 0
BITMAP
44
44
28
28
10
ENDCHAR
STARTCHAR w
ENCODING 119
SWIDTH 672 0
DWIDTH 7 0
BBX 7 5 0 0
BITMAP
44
44
54
54
28
ENDCHAR
STARTCHAR x
ENCODING 120
SWIDTH 672 0
DWIDTH 7 0
BBX 7 5 0 0
BITMAP
44
28
10
28
44
ENDCHAR
STARTCHAR y
ENCODING 121
SWIDTH 672 0
DWIDTH 7 0
BBX 7 7 0 -2
BITMAP
44
44
4C
34
04
44
38
ENDCHAR
STARTCHAR z
ENCODING 122
SWIDTH 672 0
DWIDTH 7 0
BBX 7 5 0 0
BITMAP
7C
08
10
20
7C
ENDCHAR
STARTCHAR braceleft
ENCODING 123
SWIDTH 672 0
DWIDTH 7 0
BBX 7 7 0 0
BITMAP
0C
10
08
30
08
10
0C
ENDCHAR
STARTCHAR bar
ENCODING 124
SWIDTH 672 0
DWIDTH 7 0
BBX 7 7 0 0
BITMAP
10
10
10
10
10
10
10
ENDCHAR
STARTCHAR braceright
ENCODING 125
SWIDTH 672 0
DWIDTH 7 0
BBX 7 7 0 0
BITMAP
60
10
20
18
20
10
60
ENDCHAR
STARTCHAR asciitilde
ENCODING 126
SWIDTH 672 0
DWIDTH 7 0
BBX 7 3 0 4
BITMAP
24
54
48
ENDCHAR
STARTCHAR bullet
ENCODING 149
SWIDTH 672 0
DWIDTH 7 0
BBX 7 4 0 1
BITMAP
30
78
78
30
ENDCHAR
STARTCHAR lessequal
ENCODING 152
SWIDTH 672 0
DWIDTH 7 0
BBX 7 8 0 -1
BITMAP
04
08
20
40
20
08
04
7C
ENDCHAR
STARTCHAR greaterequal
ENCODING 153
SWIDTH 672 0
DWIDTH 7 0
BBX 7 8 0 -1
BITMAP
40
20
08
04
08
20
40
7C
ENDCHAR
STARTCHAR space
ENCODING 154
SWIDTH 672 0
DWIDTH 7 0
BBX 0 0 0 0
BITMAP
ENDCHAR
STARTCHAR degree
ENCODING 156
SWIDTH 672 0
DWIDTH 7 0
BBX 7 3 0 4
BITMAP
10
28
10
ENDCHAR
STARTCHAR twosuperior
ENCODING 157
SWIDTH 672 0
DWIDTH 7 0
BBX 7 5 0 3
BITMAP
30
48
10
20
78
ENDCHAR
STARTCHAR periodcentered
ENCODING 158
SWIDTH 672 0
DWIDTH 7 0
BBX 7 1 0 3
BITMAP
10
ENDCHAR
STARTCHAR afii10071
ENCODING 163
SWIDTH 672 0
DWIDTH 7 0
BBX 7 7 0 0
BITMAP
28
00
38
44
7C
40
38
ENDCHAR
STARTCHAR afii10023
ENCODING 179
SWIDTH 672 0
DWIDTH 7 0
BBX 7 8 0 0
BITMAP
28
00
7C
40
78
40
40
7C
ENDCHAR
STARTCHAR copyright
ENCODING 191
SWIDTH 672 0
DWIDTH 7 0
BBX 7 8 0 0
BITMAP
38
44
92
AA
A2
9A
44
38
ENDCHAR
STARTCHAR afii10096
ENCODING 192
SWIDTH 672 0
DWIDTH 7 0
BBX 7 5 0 0
BITMAP
90
A8
E8
A8
90
ENDCHAR
STARTCHAR afii10065
ENCODING 193
SWIDTH 672 0
DWIDTH 7 0
BBX 7 5 0 0
BITMAP
70
08
78
88
78
ENDCHAR
STARTCHAR afii10066
ENCODING 194
SWIDTH 672 0
DWIDTH 7 0
BBX 7 7 0 0
BITMAP
78
80
70
88
88
88
70
ENDCHAR
STARTCHAR afii10088
ENCODING 195
SWIDTH 672 0
DWIDTH 7 0
BBX 7 7 0 -2
BITMAP
90
90
90
90
F8
08
08
ENDCHAR
STARTCHAR afii10069
ENCODING 196
SWIDTH 672 0
DWIDTH 7 0
BBX 7 6 0 -1
BITMAP
30
50
50
50
F8
88
ENDCHAR
STARTCHAR afii10070
ENCODING 197
SWIDTH 672 0
DWIDTH 7 0
BBX 7 5 0 0
BITMAP
70
88
F8
80
70
ENDCHAR
STARTCHAR afii10086
ENCODING 198
SWIDTH 672 0
DWIDTH 7 0
BBX 7 9 0 -2
BITMAP
20
20
70
A8
A8
A8
70
20
20
ENDCHAR
STARTCHAR afii10068
ENCODING 199
SWIDTH 672 0
DWIDTH 7 0
BBX 7 5 0 0
BITMAP
78
40
40
40
40
ENDCHAR
STARTCHAR afii10087
ENCODING 200
SWIDTH 672 0
DWIDTH 7 0
BBX 7 5 0 0
BITMAP
88
50
20
50
88
ENDCHAR
STARTCHAR afii10074
ENCODING 201
SWIDTH 672 0
DWIDTH 7 0
BBX 7 5 0 0
BITMAP
88
98
A8
C8
88
ENDCHAR
STARTCHAR afii10075
ENCODING 202
SWIDTH 672 0
DWIDTH 7 0
BBX 7 7 0 0
BITMAP
50
20
88
98
A8
C8
88
ENDCHAR
STARTCHAR afii10076
ENCODING 203
SWIDTH 672 0
DWIDTH 7 0
BBX 7 5 0 0
BITMAP
88
90
E0
90
88
ENDCHAR
STARTCHAR afii10077
ENCODING 204
SWIDTH 672 0
DWIDTH 7 0
BBX 7 5 0 0
BITMAP
38
48
48
48
88
ENDCHAR
STARTCHAR afii10078
ENCODING 205
SWIDTH 672 0
DWIDTH 7 0
BBX 7 5 0 0
BITMAP
88
D8
A8
88
88
ENDCHAR
STARTCHAR afii10079
ENCODING 206
SWIDTH 672 0
DWIDTH 7 0
BBX 7 5 0 0
BITMAP
88
88
F8
88
88
ENDCHAR
STARTCHAR afii10080
ENCODING 207
SWIDTH 672 0
DWIDTH 7 0
BBX 7 5 0 0
BITMAP
70
88
88
88
70
ENDCHAR
STARTCHAR afii10081
ENCODING 208
SWIDTH 672 0
DWIDTH 7 0
BBX 7 5 0 0
BITMAP
F8
88
88
88
88
ENDCHAR
STARTCHAR afii10097
ENCODING 209
SWIDTH 672 0
DWIDTH 7 0
BBX 7 5 0 0
BITMAP
78
88
78
88
88
ENDCHAR
STARTCHAR afii10082
ENCODING 210
SWIDTH 672 0
DWIDTH 7 0
BBX 7 7 0 -2
BITMAP
B0
C8
88
C8
B0
80
80
ENDCHAR
STARTCHAR afii10083
ENCODING 211
SWIDTH 672 0
DWIDTH 7 0
BBX 7 5 0 0
BITMAP
70
88
80
88
70
ENDCHAR
STARTCHAR afii10084
ENCODING 212
SWIDTH 672 0
DWIDTH 7 0
BBX 7 5 0 0
BITMAP
F8
20
20
20
20
ENDCHAR
STARTCHAR afii10085
ENCODING 213
SWIDTH 672 0
DWIDTH 7 0
BBX 7 7 0 -2
BITMAP
88
88
88
78
08
88
70
ENDCHAR
STARTCHAR afii10072
ENCODING 214
SWIDTH 672 0
DWIDTH 7 0
BBX 7 5 0 0
BITMAP
A8
A8
70
A8
A8
ENDCHAR
STARTCHAR afii10067
ENCODING 215
SWIDTH 672 0
DWIDTH 7 0
BBX 7 5 0 0
BITMAP
F0
88
F0
88
F0
ENDCHAR
STARTCHAR afii10094
ENCODING 216
SWIDTH 672 0
DWIDTH 7 0
BBX 7 5 0 0
BITMAP
40
40
70
48
70
ENDCHAR
STARTCHAR afii10093
ENCODING 217
SWIDTH 672 0
DWIDTH 7 0
BBX 7 5 0 0
BITMAP
88
88
E8
98
E8
ENDCHAR
STARTCHAR afii10073
ENCODING 218
SWIDTH 672 0
DWIDTH 7 0
BBX 7 5 0 0
BITMAP
70
88
30
88
70
ENDCHAR
STARTCHAR afii10090
ENCODING 219
SWIDTH 672 0
DWIDTH 7 0
BBX 7 5 0 0
BITMAP
A8
A8
A8
A8
F8
ENDCHAR
STARTCHAR afii10095
ENCODING 220
SWIDTH 672 0
DWIDTH 7 0
BBX 7 5 0 0
BITMAP
70
88
38
88
70
ENDCHAR
STARTCHAR afii10091
ENCODING 221
SWIDTH 672 0
DWIDTH 7 0
BBX 7 7 0 -2
BITMAP
A8
A8
A8
A8
F8
08
08
ENDCHAR
STARTCHAR afii10089
ENCODING 222
SWIDTH 672 0
DWIDTH 7 0
BBX 7 5 0 0
BITMAP
88
88
78
08
08
ENDCHAR
STARTCHAR afii10092
ENCODING 223
SWIDTH 672 0
DWIDTH 7 0
BBX 7 5 0 0
BITMAP
C0
40
70
48
70
ENDCHAR
STARTCHAR afii10048
ENCODING 224
SWIDTH 672 0
DWIDTH 7 0
BBX 7 7 0 0
BITMAP
90
A8
A8
E8
A8
A8
90
ENDCHAR
STARTCHAR afii10017
ENCODING 225
SWIDTH 672 0
DWIDTH 7 0
BBX 7 7 0 0
BITMAP
20
50
88
88
F8
88
88
ENDCHAR
STARTCHAR afii10018
ENCODING 226
SWIDTH 672 0
DWIDTH 7 0
BBX 7 7 0 0
BITMAP
F0
80
80
F0
88
88
F0
ENDCHAR
STARTCHAR afii10040
ENCODING 227
SWIDTH 672 0
DWIDTH 7 0
BBX 7 9 0 -2
BITMAP
90
90
90
90
90
90
F8
08
08
ENDCHAR
STARTCHAR afii10021
ENCODING 228
SWIDTH 672 0
DWIDTH 7 0
BBX 7 8 0 -1
BITMAP
18
28
28
48
48
48
F8
88
ENDCHAR
STARTCHAR afii10022
ENCODING 229
SWIDTH 672 0
DWIDTH 7 0
BBX 7 7 0 0
BITMAP
F8
80
80
F0
80
80
F8
ENDCHAR
STARTCHAR afii10038
ENCODING 230
SWIDTH 672 0
DWIDTH 7 0
BBX 7 7 0 0
BITMAP
20
70
A8
A8
A8
70
20
ENDCHAR
STARTCHAR afii10020
ENCODING 231
SWIDTH 672 0
DWIDTH 7 0
BBX 7 7 0 0
BITMAP
F8
80
80
80
80
80
80
ENDCHAR
STARTCHAR afii10039
ENCODING 232
SWIDTH 672 0
DWIDTH 7 0
BBX 7 7 0 0
BITMAP
88
88
50
20
50
88
88
ENDCHAR
STARTCHAR afii10026
ENCODING 233
SWIDTH 672 0
DWIDTH 7 0
BBX 7 7 0 0
BITMAP
88
88
98
A8
C8
88
88
ENDCHAR
STARTCHAR afii10027
ENCODING 234
SWIDTH 672 0
DWIDTH 7 0
BBX 7 8 0 0
BITMAP
50
20
88
98
A8
C8
88
88
ENDCHAR
STARTCHAR afii10028
ENCODING 235
SWIDTH 672 0
DWIDTH 7 0
BBX 7 7 0 0
BITMAP
88
90
A0
C0
A0
90
88
ENDCHAR
STARTCHAR afii10029
ENCODING 236
SWIDTH 672 0
DWIDTH 7 0
BBX 7 7 0 0
BITMAP
38
48
48
48
48
48
88
ENDCHAR
STARTCHAR afii10030
ENCODING 237
SWIDTH 672 0
DWIDTH 7 0
BBX 7 7 0 0
BITMAP
88
88
D8
A8
88
88
88
ENDCHAR
STARTCHAR afii10031
ENCODING 238
SWIDTH 672 0
DWIDTH 7 0
BBX 7 7 0 0
BITMAP
88
88
88
F8
88
88
88
ENDCHAR
STARTCHAR afii10032
ENCODING 239
SWIDTH 672 0
DWIDTH 7 0
BBX 7 7 0 0
BITMAP
70
88
88
88
88
88
70
ENDCHAR
STARTCHAR afii10033
ENCODING 240
SWIDTH 672 0
DWIDTH 7 0
BBX 7 7 0 0
BITMAP
F8
88
88
88
88
88
88
ENDCHAR
STARTCHAR afii10049
ENCODING 241
SWIDTH 672 0
DWIDTH 7 0
BBX 7 7 0 0
BITMAP
78
88
88
78
28
48
88
ENDCHAR
STARTCHAR afii10034
ENCODING 242
SWIDTH 672 0
DWIDTH 7 0
BBX 7 7 0 0
BITMAP
F0
88
88
F0
80
80
80
ENDCHAR
STARTCHAR afii10035
ENCODING 243
SWIDTH 672 0
DWIDTH 7 0
BBX 7 7 0 0
BITMAP
70
88
80
80
80
88
70
ENDCHAR
STARTCHAR afii10036
ENCODING 244
SWIDTH 672 0
DWIDTH 7 0
BBX 7 7 0 0
BITMAP
F8
20
20
20
20
20
20
ENDCHAR
STARTCHAR afii10037
ENCODING 245
SWIDTH 672 0
DWIDTH 7 0
BBX 7 7 0 0
BITMAP
88
88
88
50
20
40
80
ENDCHAR
STARTCHAR afii10024
ENCODING 246
SWIDTH 672 0
DWIDTH 7 0
BBX 7 7 0 0
BITMAP
A8
A8
A8
70
A8
A8
A8
ENDCHAR
STARTCHAR afii10019
ENCODING 247
SWIDTH 672 0
DWIDTH 7 0
BBX 7 7 0 0
BITMAP
F0
88
88
F0
88
88
F0
ENDCHAR
STARTCHAR afii10046
ENCODING 248
SWIDTH 672 0
DWIDTH 7 0
BBX 7 7 0 0
BITMAP
40
40
40
70
48
48
70
ENDCHAR
STARTCHAR afii10045
ENCODING 249
SWIDTH 672 0
DWIDTH 7 0
BBX 7 7 0 0
BITMAP
88
88
88
E8
98
98
E8
ENDCHAR
STARTCHAR afii10025
ENCODING 250
SWIDTH 672 0
DWIDTH 7 0
BBX 7 7 0 0
BITMAP
70
88
08
30
08
88
70
ENDCHAR
STARTCHAR afii10042
ENCODING 251
SWIDTH 672 0
DWIDTH 7 0
BBX 7 7 0 0
BITMAP
A8
A8
A8
A8
A8
A8
F8
ENDCHAR
STARTCHAR afii10047
ENCODING 252
SWIDTH 672 0
DWIDTH 7 0
BBX 7 7 0 0
BITMAP
70
88
08
38
08
88
70
ENDCHAR
STARTCHAR afii10043
ENCODING 253
SWIDTH 672 0
DWIDTH 7 0
BBX 7 9 0 -2
BITMAP
A8
A8
A8
A8
A8
A8
F8
08
08
ENDCHAR
STARTCHAR afii10041
ENCODING 254
SWIDTH 672 0
DWIDTH 7 0
BBX 7 7 0 0
BITMAP
88
88
88
78
08
08
08
ENDCHAR
STARTCHAR afii10044
ENCODING 255
SWIDTH 672 0
DWIDTH 7 0
BBX 7 7 0 0
BITMAP
C0
40
40
70
48
48
70
ENDCHAR
ENDFONT
